<?xml version="1.0" encoding="utf-8"?>
<!-- Generator: Adobe Illustrator 24.1.2, SVG Export Plug-In . SVG Version: 6.00 Build 0)  -->
<svg version="1.1" id="Layer_1" xmlns="http://www.w3.org/2000/svg" xmlns:xlink="http://www.w3.org/1999/xlink" x="0px" y="0px"
	 viewBox="0 0 84.26 59.38" style="enable-background:new 0 0 84.26 59.38;" xml:space="preserve">
<style type="text/css">
	.st0{opacity:0.37;clip-path:url(#SVGID_2_);}
	.st1{clip-path:url(#SVGID_4_);}
	.st2{fill:#DCDCDC;}
	.st3{fill:#FFFFFF;}
	.st4{fill:#034EA2;}
	.st5{fill:#FFF100;}
</style>
<g>
	<g>
		<defs>
			<rect id="SVGID_1_" x="-623.7" y="-1487.1" width="1909.02" height="553.52"/>
		</defs>
		<clipPath id="SVGID_2_">
			<use xlink:href="#SVGID_1_"  style="overflow:visible;"/>
		</clipPath>
		<g class="st0">
			<g>
				<defs>
					<rect id="SVGID_3_" x="-617.55" y="-1658.11" width="1900.66" height="1908.61"/>
				</defs>
				<clipPath id="SVGID_4_">
					<use xlink:href="#SVGID_3_"  style="overflow:visible;"/>
				</clipPath>
				<g class="st1">
					<g>
						<polygon class="st2" points="36.05,8.65 111.71,17.43 91.87,77.96 11.24,70.21 						"/>
					</g>
				</g>
			</g>
		</g>
	</g>
</g>
<g>
	<g>
		<rect x="1.1" y="2.15" class="st3" width="82" height="55.7"/>
	</g>
	<g>
		<rect x="2.69" y="3.67" class="st4" width="78.85" height="52.56"/>
	</g>
	<g>
		<polygon class="st5" points="40.43,15.13 42.09,13.91 43.75,15.13 43.12,13.16 44.81,11.95 42.73,11.95 42.09,9.96 41.45,11.95 
			39.37,11.95 41.06,13.16 		"/>
		<polygon class="st5" points="31.82,17.44 33.48,16.23 35.14,17.44 34.51,15.47 36.2,14.27 34.12,14.27 33.48,12.27 32.84,14.27 
			30.76,14.27 32.45,15.47 		"/>
		<polygon class="st5" points="27.18,18.58 26.55,20.58 24.46,20.58 26.15,21.79 25.52,23.75 27.18,22.53 28.85,23.75 28.21,21.79 
			29.89,20.58 27.82,20.58 		"/>
		<polygon class="st5" points="24.87,31.13 26.53,32.35 25.9,30.39 27.59,29.17 25.51,29.17 24.87,27.18 24.23,29.17 22.15,29.17 
			23.84,30.39 23.21,32.35 		"/>
		<polygon class="st5" points="27.82,37.8 27.18,35.81 26.55,37.81 24.46,37.8 26.15,39.01 25.52,40.97 27.18,39.77 28.85,40.97 
			28.21,39.01 29.89,37.8 		"/>
		<polygon class="st5" points="34.13,44.12 33.49,42.12 32.86,44.12 30.77,44.12 32.46,45.32 31.83,47.29 33.49,46.08 35.16,47.29 
			34.53,45.32 36.22,44.12 		"/>
		<polygon class="st5" points="42.73,46.39 42.09,44.41 41.45,46.41 39.37,46.39 41.06,47.61 40.43,49.57 42.09,48.36 43.75,49.57 
			43.12,47.61 44.81,46.39 		"/>
		<polygon class="st5" points="51.33,44.12 50.69,42.12 50.05,44.12 47.97,44.12 49.67,45.32 49.03,47.29 50.69,46.08 52.35,47.29 
			51.73,45.32 53.41,44.12 		"/>
		<polygon class="st5" points="57.64,37.8 57,35.81 56.36,37.81 54.29,37.8 55.97,39.01 55.34,40.97 57,39.77 58.66,40.97 
			58.04,39.01 59.72,37.8 		"/>
		<polygon class="st5" points="62.01,29.15 59.93,29.15 59.29,27.16 58.65,29.15 56.57,29.15 58.26,30.37 57.63,32.33 59.29,31.11 
			60.95,32.33 60.33,30.37 		"/>
		<polygon class="st5" points="55.34,23.73 57,22.51 58.66,23.73 58.04,21.76 59.72,20.55 57.64,20.55 57,18.56 56.36,20.55 
			54.29,20.55 55.97,21.76 		"/>
		<polygon class="st5" points="50.71,12.27 50.08,14.27 47.99,14.27 49.69,15.47 49.05,17.44 50.71,16.23 52.38,17.44 51.75,15.47 
			53.44,14.27 51.35,14.27 		"/>
	</g>
</g>
</svg>
